Coordinates
version=1
nRows=17
nColumns=40
inDegrees=yes

Units are S.I. units (second, meters, Newtons, ...)
Angles are in degrees.

endheader
time	pelvis_tilt	pelvis_list	pelvis_rotation	pelvis_tx	pelvis_ty	pelvis_tz	hip_flexion_r	hip_adduction_r	hip_rotation_r	knee_angle_r	knee_angle_r_beta	ankle_angle_r	subtalar_angle_r	mtp_angle_r	hip_flexion_l	hip_adduction_l	hip_rotation_l	knee_angle_l	knee_angle_l_beta	ankle_angle_l	subtalar_angle_l	mtp_angle_l	lumbar_extension	lumbar_bending	lumbar_rotation	arm_flex_r	arm_add_r	arm_rot_r	elbow_flex_r	pro_sup_r	wrist_flex_r	wrist_dev_r	arm_flex_l	arm_add_l	arm_rot_l	elbow_flex_l	pro_sup_l	wrist_flex_l	wrist_dev_l
     14.81828571	     -4.37850761	     -6.02592879	     -3.38088403	      1.00938511	      0.93637053	      0.41138552	     30.81592312	     -4.76256934	     -4.95777085	     52.82638065	     52.82638065	      1.30312010	     -9.42314412	     -2.25167019	     12.97792855	     -7.50502527	     -9.71636246	     19.73630077	     19.73630077	     12.46133390	    -10.56782744	     -0.52190574	    -10.82702777	      5.97023612	      2.71161104	      4.90880992	    -12.62681155	     -6.85663392	     30.98942082	     46.53086621	      0.00000000	      0.00000000	     20.63231486	    -19.65636799	     -0.30818555	     52.40059509	     46.06459845	      0.00000000	      0.00000000
     14.83157143	     -4.57491807	     -6.06090889	     -3.68290948	      1.00842197	      0.93623901	      0.41123359	     31.05982121	     -4.52949439	     -5.47588740	     49.35484261	     49.35484261	      1.39405594	     -9.02144217	     -1.99402628	     12.65656258	     -7.52131629	     -9.96448186	     19.43430991	     19.43430991	     12.62657487	    -10.57997504	     -0.66334486	    -10.77831717	      6.03745063	      2.68450796	      3.80555244	    -12.39913819	     -6.79770555	     30.24476856	     46.54538680	      0.00000000	      0.00000000	     21.39287745	    -19.85454430	     -0.74975711	     53.48565336	     46.12798717	      0.00000000	      0.00000000
     14.84485714	     -4.71293437	     -6.03039324	     -3.99797311	      1.00760417	      0.93605691	      0.41119995	     30.96814983	     -4.28853295	     -6.00214898	     45.30717938	     45.30717938	      0.89240237	     -8.67347290	     -3.43956682	     12.22257003	     -7.49774788	    -10.37863265	     19.04781533	     19.04781533	     12.52133801	    -10.42333955	     -1.56058096	    -10.86573689	      5.99703266	      2.17650087	      3.51736054	    -11.97197193	     -6.81028686	     28.27863784	     46.60259620	      0.00000000	      0.00000000	     20.84108951	    -20.11853132	     -3.20740544	     57.24811682	     46.42250948	      0.00000000	      0.00000000
     14.85814286	     -4.99194817	     -5.97946357	     -4.23437797	      1.00678251	      0.93561192	      0.41116826	     30.90669485	     -4.05496524	     -6.67054341	     41.07214738	     41.07214738	      0.95173252	     -7.76562768	     -2.93525614	     12.02209991	     -7.43112782	    -10.57834596	     18.77954065	     18.77954065	     12.67829533	    -10.37888018	     -1.64673400	    -10.70574851	      6.01190726	      2.17608435	      2.41336739	    -11.75758244	     -6.74814042	     27.71590050	     46.61003561	      0.00000000	      0.00000000	     21.62854613	    -20.25306285	     -3.45990443	     58.02355629	     46.46377785	      0.00000000	      0.00000000
     14.87142857	     -5.16748222	     -5.90433254	     -4.44948271	      1.00621063	      0.93522765	      0.41118752	     30.48977245	     -3.83015638	     -7.52159382	     36.46303347	     36.46303347	      0.91530998	     -6.41272736	     -2.44927955	     11.67273005	     -7.34550755	    -10.87312810	     18.48617172	     18.48617172	     12.86597878	    -10.20414811	     -1.82088756	    -10.63845883	      5.97068713	      2.35485491	      1.27378430	    -11.64837843	     -6.70984453	     27.11642263	     46.62068495	      0.00000000	      0.00000000	     22.37071669	    -20.15252538	     -3.78137958	     59.20032468	     46.51596392	      0.00000000	      0.00000000
     14.88471429	     -5.21588553	     -5.68914458	     -4.65690902	      1.00587593	      0.93482527	      0.41126137	     29.79793182	     -3.76109009	     -8.59108702	     31.71396063	     31.71396063	      0.76223128	     -4.35004273	     -2.28812293	     11.16981966	     -7.13872896	    -11.42300213	     18.17943306	     18.17943306	     13.04850837	     -9.72396746	     -2.23227828	    -10.77289698	      5.72852777	      2.62364704	      0.12785238	    -11.51932710	     -6.73865709	     26.54193032	     46.63349610	      0.00000000	      0.00000000	     22.90977713	    -19.89244084	     -4.46914045	     61.24186935	     46.61268218	      0.00000000	      0.00000000
     14.89800000	     -5.40979336	     -5.49098425	     -4.74806144	      1.00573880	      0.93409144	      0.41140140	     29.05927108	     -3.56417407	     -9.69072372	     26.78736983	     26.78736983	      0.38942138	     -2.21835809	     -2.22645997	     10.84613931	     -6.95592329	    -11.82745805	     17.89575393	     17.89575393	     13.16341435	     -9.21182980	     -2.95980215	    -10.64406505	      5.56091067	      2.12316007	     -0.63584636	    -11.30505493	     -6.93637587	     26.27439039	     46.64314761	      0.00000000	      0.00000000	     22.49756142	    -19.95150836	     -5.93388819	     63.88884585	     46.79020034	      0.00000000	      0.00000000
     14.91128571	     -5.50254484	     -5.22662495	     -4.82465089	      1.00583027	      0.93338821	      0.41167235	     28.15824140	     -3.35841248	    -10.74768442	     22.03733361	     22.03733361	      0.20853162	      0.21457097	     -1.09797637	     10.37742700	     -6.66340311	    -12.12635524	     17.55728494	     17.55728494	     13.37308087	     -8.87568315	     -3.26261155	    -10.57692947	      5.30351533	      2.17309755	     -1.61080648	    -11.14676010	     -6.92485444	     25.87964525	     46.64687244	      0.00000000	      0.00000000	     23.00397867	    -19.77461454	     -6.23553615	     65.02014032	     46.84362302	      0.00000000	      0.00000000
     14.92457143	     -5.58768322	     -4.93767100	     -4.83290304	      1.00620029	      0.93255151	      0.41204706	     27.24143917	     -3.13640725	    -11.77287180	     17.64677333	     17.64677333	      0.04069935	      2.66741306	      0.40526293	      9.90892118	     -6.35385284	    -12.40465746	     17.24793222	     17.24793222	     13.58954515	     -8.47043916	     -3.62721269	    -10.46266114	      5.02954184	      2.13413297	     -2.56649926	    -11.00927460	     -6.95247578	     25.67009809	     46.64632330	      0.00000000	      0.00000000	     23.34112867	    -19.60492004	     -6.47666409	     66.11831131	     46.88861496	      0.00000000	      0.00000000
     14.93785714	     -5.58261887	     -4.57938486	     -4.81179716	      1.00685048	      0.93169900	      0.41253020	     26.36279540	     -3.02723725	    -12.87388740	     13.97222103	     13.97222103	      0.09980653	      5.32905842	      2.42440267	      9.30448097	     -5.96986926	    -12.74875628	     16.88712819	     16.88712819	     13.81309853	     -7.92298062	     -4.10826803	    -10.40771075	      4.64529919	      2.08544121	     -3.49307366	    -10.86612755	     -7.00586926	     25.65012861	     46.63900880	      0.00000000	      0.00000000	     23.56976046	    -19.40216536	     -6.74412957	     67.37033051	     46.93898897	      0.00000000	      0.00000000
     14.95114286	     -5.63163410	     -4.23516550	     -4.73580188	      1.00767806	      0.93072865	      0.41312056	     25.65474592	     -2.90133181	    -13.70721715	     11.00066830	     11.00066830	      0.10635891	      7.42071187	      4.34857602	      8.74729581	     -5.59568477	    -12.97594050	     16.51669336	     16.51669336	     14.04352767	     -7.44790586	     -4.51134762	    -10.23248991	      4.32756650	      1.99718136	     -4.34708475	    -10.75165696	     -7.03846410	     25.65784106	     46.63004065	      0.00000000	      0.00000000	     23.68972164	    -19.15695382	     -6.89394920	     68.34428205	     46.97378277	      0.00000000	      0.00000000
     14.96442857	     -5.62079840	     -3.89928832	     -4.66996040	      1.00870226	      0.92987689	      0.41390293	     25.04280154	     -2.82962151	    -14.46541500	      8.89751198	      8.89751198	      0.26207373	      9.24362130	      6.25838605	      8.08361181	     -5.23423742	    -13.23342605	     16.09392411	     16.09392411	     14.26778305	     -6.91208537	     -4.91951081	    -10.12315352	      3.98164591	      1.93529905	     -5.09318395	    -10.62936492	     -7.05345906	     25.79790183	     46.61442015	      0.00000000	      0.00000000	     23.76088706	    -18.88761623	     -7.01703534	     69.28676971	     47.00666362	      0.00000000	      0.00000000
     14.97771429	     -5.70288615	     -3.54234207	     -4.60572067	      1.00976422	      0.92891007	      0.41488099	     24.70377890	     -2.81977115	    -14.84155135	      7.63411733	      7.63411733	      0.32755203	     10.29420849	      7.41092813	      7.55306813	     -4.86847914	    -13.42551495	     15.73464374	     15.73464374	     14.48681799	     -6.47941563	     -5.20245584	     -9.83683685	      3.57795379	      1.85513182	     -5.64719474	    -10.47280541	     -7.03405305	     25.92925465	     46.59892297	      0.00000000	      0.00000000	     23.81052386	    -18.65390282	     -7.07190542	     69.91217648	     47.02714494	      0.00000000	      0.00000000
     14.99100000	     -5.58772567	     -3.34145489	     -4.47115315	      1.01110684	      0.92833445	      0.41594573	     24.18513450	     -2.77069587	    -15.28540373	      7.04487923	      7.04487923	      0.58513036	     11.16800124	      8.60427025	      6.76073484	     -4.66586696	    -13.63202121	     15.32523923	     15.32523923	     14.73404758	     -5.88342268	     -5.57137165	     -9.82541440	      3.39676650	      1.76880228	     -6.22825224	    -10.45105477	     -6.96411519	     26.39314467	     46.56221169	      0.00000000	      0.00000000	     23.67737460	    -18.36064262	     -7.15832024	     70.68593997	     47.05776938	      0.00000000	      0.00000000
     15.00428571	     -5.67118724	     -3.18273644	     -4.31654221	      1.01231263	      0.92739724	      0.41720491	     23.98731944	     -2.70927158	    -15.28968300	      7.05223592	      7.05223592	      0.54330882	     11.16133108	      8.63765725	      6.38577949	     -4.55024159	    -13.53557616	     15.28036257	     15.28036257	     15.06475971	     -5.80441138	     -5.70998080	     -9.53028866	      3.25795194	      1.57727604	     -6.42540419	    -10.41678894	     -6.95498684	     26.37655302	     46.55987513	      0.00000000	      0.00000000	     23.60858917	    -18.16694765	     -7.09894290	     70.73702372	     47.05475936	      0.00000000	      0.00000000
     15.01757143	     -5.67576880	     -3.06484368	     -4.10221524	      1.01378685	      0.92673227	      0.41851730	     23.60245939	     -2.66257660	    -15.29468049	      7.25331890	      7.25331890	      0.43808806	     11.04328717	      8.56572477	      5.85149765	     -4.47178682	    -13.41035454	     15.12036709	     15.12036709	     15.35617314	     -5.56732603	     -5.81174552	     -9.27537388	      3.17550846	      1.41735479	     -6.60152094	    -10.37550792	     -6.93473739	     26.39836644	     46.55498703	      0.00000000	      0.00000000	     23.39645274	    -17.83523139	     -7.00037377	     70.78429869	     47.04818064	      0.00000000	      0.00000000
     15.03085714	     -5.40511413	     -2.86183331	     -3.96823003	      1.01565553	      0.92652079	      0.42012186	     23.15216502	     -2.74793600	    -14.75429743	      8.12619854	      8.12619854	      0.16542875	     10.21021517	      7.01008780	      4.64535071	     -4.27452471	    -13.82444185	     14.31802787	     14.31802787	     15.63058786	     -4.43269999	     -5.70852535	     -9.36976411	      2.95378466	      1.45512114	     -6.84519117	    -10.42425009	     -6.74579863	     26.99443613	     46.50729139	      0.00000000	      0.00000000	     23.08376367	    -17.44366356	     -7.05283001	     71.12000155	     47.06426924	      0.00000000	      0.00000000
